<svg width="20" height="20" viewBox="0 0 20 20" fill="none" xmlns="http://www.w3.org/2000/svg">
<path opacity="1" d="M15.447 18.2958L15.4454 18.295L10.3484 15.615L9.9994 15.4315L9.65036 15.615L4.55434 18.2945C4.51308 18.3161 4.4666 18.3258 4.42015 18.3224C4.37369 18.319 4.32911 18.3027 4.29142 18.2753C4.25373 18.248 4.22444 18.2106 4.20684 18.1675C4.1893 18.1245 4.18408 18.0775 4.19177 18.0317C4.19179 18.0315 4.19181 18.0314 4.19184 18.0313L5.16462 12.3566L5.23123 11.968L4.94891 11.6928L0.82535 7.67322C0.825279 7.67315 0.825208 7.67308 0.825137 7.67301C0.791897 7.64048 0.768389 7.59932 0.757261 7.55415C0.746108 7.50889 0.747832 7.46142 0.762236 7.41708C0.776641 7.37275 0.803153 7.33333 0.838779 7.30327C0.874332 7.27327 0.917546 7.25379 0.963561 7.24701C0.963657 7.24699 0.963753 7.24698 0.963849 7.24697L6.66223 6.41906L7.05241 6.36237L7.22693 6.00882L9.76005 0.876994C9.78479 0.840587 9.81755 0.810217 9.8559 0.788278C9.89975 0.763195 9.94938 0.75 9.9999 0.75C10.0504 0.75 10.1001 0.763195 10.1439 0.788278C10.1822 0.810211 10.215 0.840569 10.2397 0.876961L12.7718 6.00871L12.9463 6.36236L13.3366 6.41906L19.0349 7.24697C19.035 7.24698 19.0351 7.24699 19.0352 7.247C19.0812 7.25378 19.1245 7.27326 19.16 7.30327C19.1956 7.33333 19.2222 7.37275 19.2366 7.41708C19.251 7.46142 19.2527 7.50889 19.2415 7.55415C19.2304 7.59932 19.2069 7.64049 19.1736 7.67302C19.1736 7.67309 19.1735 7.67315 19.1734 7.67322L15.0499 11.6928L14.7675 11.968L14.8342 12.3567L15.8082 18.0326C15.8082 18.0326 15.8082 18.0327 15.8082 18.0327C15.8143 18.0685 15.8126 18.1053 15.803 18.1404C15.7935 18.1755 15.7764 18.2081 15.753 18.2359C15.7295 18.2638 15.7003 18.2861 15.6673 18.3015C15.6353 18.3164 15.5989 18.3246 15.5621 18.3248C15.522 18.3246 15.4825 18.3146 15.447 18.2958Z" stroke="white" stroke-width="2.20468" stroke-linecap="round" stroke-linejoin="round"/>
</svg>
