<svg width="27" height="27" viewBox="0 0 27 27" fill="none" xmlns="http://www.w3.org/2000/svg">
<path d="M13.4922 12.4385C13.3819 12.4275 13.2497 12.4275 13.1284 12.4385C10.5048 12.3503 8.42142 10.2008 8.42142 7.55515C8.42142 4.85442 10.604 2.66077 13.3158 2.66077C16.0165 2.66077 18.2102 4.85442 18.2102 7.55515C18.1992 10.2008 16.1157 12.3503 13.4922 12.4385Z" stroke="white" stroke-width="2.20468" stroke-linecap="round" stroke-linejoin="round"/>
<path d="M7.98048 16.5062C5.31282 18.292 5.31282 21.2022 7.98048 22.9769C11.0119 25.0052 15.9835 25.0052 19.0149 22.9769C21.6826 21.1911 21.6826 18.281 19.0149 16.5062C15.9945 14.4889 11.0229 14.4889 7.98048 16.5062Z" stroke="white" stroke-width="2.20468" stroke-linecap="round" stroke-linejoin="round"/>
</svg>
