<svg width="18" height="18" viewBox="0 0 18 18" fill="none" xmlns="http://www.w3.org/2000/svg">
<g clip-path="url(#clip0_1506_298)">
<path d="M17.4727 12.6914H12.1641C11.8726 12.6914 11.6367 12.9273 11.6367 13.2188V18H17.4727C17.7641 18 18 17.7641 18 17.4727V13.2188C18 12.9273 17.7641 12.6914 17.4727 12.6914Z" fill="white"/>
<path d="M5.83594 11.6367H0.527344C0.235863 11.6367 0 11.8726 0 12.1641V17.4727C0 17.7641 0.235863 18 0.527344 18H6.36328V12.1641C6.36328 11.8726 6.12742 11.6367 5.83594 11.6367Z" fill="white"/>
<path d="M12.6914 9V18H5.30859V9C5.30859 8.70465 5.54059 8.47266 5.83594 8.47266H12.1641C12.4594 8.47266 12.6914 8.70465 12.6914 9Z" fill="white"/>
<path d="M12.6914 9V18H9V8.47266H12.1641C12.4594 8.47266 12.6914 8.70465 12.6914 9Z" fill="white"/>
<path d="M12.3856 2.58746L10.3816 2.27106L9.50619 0.306457C9.42188 0.127125 9.21091 -0.0099846 8.99997 0.000562279C8.83126 0.000562279 8.67302 0.0849724 8.55704 0.29591L7.63946 2.22887L5.63552 2.49254C5.20313 2.55586 5.01322 3.0832 5.32969 3.38906L6.76407 4.82344L6.39496 6.8168C6.31055 7.24918 6.76407 7.58668 7.1543 7.38629L8.95785 6.46871L8.99997 6.48984L10.7402 7.42852C11.1199 7.63942 11.584 7.32301 11.5101 6.89062L11.1937 4.88668L12.6597 3.48391C12.9867 3.18867 12.8179 2.65075 12.3856 2.58746Z" fill="white"/>
<path d="M9.52734 11.1094V14.2734C9.52734 14.5687 9.29535 14.8008 9 14.8008C8.70465 14.8008 8.47266 14.5687 8.47266 14.2734V12.3855L8.31442 12.5332C8.11403 12.7441 7.7766 12.7441 7.57617 12.5332C7.36523 12.3328 7.36523 11.9953 7.57617 11.7949L8.63086 10.7402C8.73633 10.6348 8.86289 10.582 9 10.582C9.26367 10.582 9.52734 10.793 9.52734 11.1094Z" fill="#2A2A2A"/>
<path d="M9.52734 11.1094V14.2734C9.52734 14.5687 9.29535 14.8008 9 14.8008V10.582C9.26367 10.582 9.52734 10.793 9.52734 11.1094Z" fill="black"/>
<path d="M12.6597 3.48395L11.1937 4.88672L11.5102 6.89066C11.584 7.32305 11.1199 7.63945 10.7403 7.42855L9 6.48984V0.000562279C9.21094 -0.0099846 9.42191 0.127125 9.50621 0.306457L10.3816 2.27109L12.3856 2.5875C12.818 2.65075 12.9868 3.18867 12.6597 3.48395Z" fill="white"/>
</g>
<defs>
<clipPath id="clip0_1506_298">
<rect width="18" height="18" fill="white"/>
</clipPath>
</defs>
</svg>
