<svg width="24" height="24" viewBox="0 0 24 24" fill="none" xmlns="http://www.w3.org/2000/svg">
<path d="M17.562 21.56C17.3999 21.5596 17.2403 21.5198 17.097 21.444L12 18.764L6.90301 21.444C6.73797 21.5305 6.55206 21.5691 6.36624 21.5555C6.18042 21.542 6.00208 21.4768 5.85132 21.3673C5.70057 21.2579 5.5834 21.1084 5.51302 20.9359C5.44264 20.7634 5.42186 20.5747 5.45301 20.391L6.42601 14.715L2.30201 10.695C2.1686 10.5647 2.07426 10.3998 2.02965 10.2187C1.98504 10.0377 1.99194 9.84778 2.04956 9.67045C2.10717 9.49313 2.21322 9.33544 2.35573 9.2152C2.49823 9.09495 2.67151 9.01695 2.85601 8.98999L8.55501 8.16199L11.104 2.99799C11.1958 2.84183 11.3269 2.71236 11.4841 2.62241C11.6413 2.53246 11.8194 2.48514 12.0005 2.48514C12.1817 2.48514 12.3597 2.53246 12.5169 2.62241C12.6742 2.71236 12.8052 2.84183 12.897 2.99799L15.445 8.16199L21.144 8.98999C21.3285 9.01695 21.5018 9.09495 21.6443 9.2152C21.7868 9.33544 21.8928 9.49313 21.9505 9.67045C22.0081 9.84778 22.015 10.0377 21.9704 10.2187C21.9258 10.3998 21.8314 10.5647 21.698 10.695L17.574 14.715L18.548 20.391C18.5726 20.5345 18.5656 20.6816 18.5274 20.8221C18.4893 20.9626 18.4209 21.093 18.3271 21.2043C18.2333 21.3157 18.1163 21.4052 17.9844 21.4666C17.8524 21.528 17.7076 21.5599 17.562 21.56Z" fill="#5BEF00"/>
</svg>
