<svg width="24" height="24" viewBox="0 0 24 24" fill="none" xmlns="http://www.w3.org/2000/svg">
<rect x="0.5" y="0.5" width="23" height="23" stroke="black"/>
<path d="M17.3308 21.002L17.3297 21.0015L12.2327 18.3215L12 18.1991L11.7673 18.3215L6.67097 21.0011C6.58845 21.0444 6.4955 21.0637 6.40258 21.0569C6.30968 21.0501 6.22051 21.0175 6.14513 20.9628C6.06975 20.9081 6.01116 20.8333 5.97597 20.7471C5.94084 20.661 5.93042 20.5667 5.9459 20.475C5.94592 20.4749 5.94595 20.4748 5.94597 20.4746L6.91882 14.7995L6.96323 14.5404L6.77502 14.357L2.65131 10.3373C2.5846 10.2721 2.53744 10.1897 2.51513 10.0991C2.49283 10.0086 2.49627 9.91366 2.52508 9.825C2.55389 9.73633 2.60692 9.65749 2.67817 9.59737C2.74936 9.5373 2.83591 9.49831 2.92807 9.4848C2.92815 9.48479 2.92823 9.48477 2.92831 9.48476L8.6269 8.65682L8.88702 8.61903L9.00336 8.38333L11.543 3.23837C11.5901 3.16314 11.6552 3.10062 11.7324 3.05644C11.814 3.00974 11.9064 2.98517 12.0005 2.98517C12.0946 2.98517 12.187 3.00974 12.2686 3.05644C12.3459 3.10061 12.4109 3.16312 12.458 3.23835L14.9966 8.38326L15.1129 8.61902L15.3731 8.65682L21.0717 9.48476C21.0718 9.48477 21.0718 9.48478 21.0719 9.48479C21.1641 9.4983 21.2507 9.53729 21.3218 9.59737C21.3931 9.65749 21.4461 9.73633 21.4749 9.825C21.5037 9.91366 21.5072 10.0086 21.4849 10.0991C21.4626 10.1896 21.4155 10.272 21.3488 10.3372C21.3488 10.3372 21.3487 10.3372 21.3487 10.3373L17.225 14.357L17.0367 14.5405L17.0812 14.7996L18.0552 20.4755C18.0552 20.4755 18.0552 20.4756 18.0552 20.4756C18.0675 20.5473 18.064 20.6208 18.0449 20.6911C18.0258 20.7613 17.9917 20.8265 17.9448 20.8822C17.8979 20.9379 17.8394 20.9826 17.7734 21.0133C17.7081 21.0437 17.6355 21.0599 17.5624 21.06C17.4816 21.0597 17.4022 21.0398 17.3308 21.002Z" stroke="#2F6E26"/>
</svg>
