<svg width="23" height="23" viewBox="0 0 23 23" fill="none" xmlns="http://www.w3.org/2000/svg">
<circle cx="11.5" cy="11.5" r="11.5" fill="#1F3F1A"/>
<path d="M12.3812 11.5L16.3187 7.56875C16.4364 7.45106 16.5025 7.29144 16.5025 7.125C16.5025 6.95856 16.4364 6.79894 16.3187 6.68125C16.201 6.56356 16.0414 6.49744 15.875 6.49744C15.7085 6.49744 15.5489 6.56356 15.4312 6.68125L11.5 10.6188L7.56871 6.68125C7.45102 6.56356 7.2914 6.49744 7.12496 6.49744C6.95852 6.49744 6.7989 6.56356 6.68121 6.68125C6.56352 6.79894 6.4974 6.95856 6.4974 7.125C6.4974 7.29144 6.56352 7.45106 6.68121 7.56875L10.6187 11.5L6.68121 15.4313C6.62263 15.4894 6.57614 15.5585 6.5444 15.6346C6.51267 15.7108 6.49634 15.7925 6.49634 15.875C6.49634 15.9575 6.51267 16.0392 6.5444 16.1154C6.57614 16.1915 6.62263 16.2606 6.68121 16.3188C6.73931 16.3773 6.80844 16.4238 6.8846 16.4556C6.96076 16.4873 7.04245 16.5036 7.12496 16.5036C7.20747 16.5036 7.28916 16.4873 7.36532 16.4556C7.44148 16.4238 7.51061 16.3773 7.56871 16.3188L11.5 12.3813L15.4312 16.3188C15.4893 16.3773 15.5584 16.4238 15.6346 16.4556C15.7108 16.4873 15.7925 16.5036 15.875 16.5036C15.9575 16.5036 16.0392 16.4873 16.1153 16.4556C16.1915 16.4238 16.2606 16.3773 16.3187 16.3188C16.3773 16.2606 16.4238 16.1915 16.4555 16.1154C16.4873 16.0392 16.5036 15.9575 16.5036 15.875C16.5036 15.7925 16.4873 15.7108 16.4555 15.6346C16.4238 15.5585 16.3773 15.4894 16.3187 15.4313L12.3812 11.5Z" fill="white"/>
</svg>
